<svg xmlns="http://www.w3.org/2000/svg" width="540" height="245" viewBox="0 0 540 245">
  <defs>
    <style>
      .cls-1 {
        fill: #00d2ff;
      }
    </style>
  </defs>
  <path id="Shape_316_1" data-name="Shape 316 1" class="cls-1" d="M254.183,1.5c12.65-.153,30.068-1.536,39.97,1,41.809,10.715,73.309,34.758,88.934,71.146,3.548,8.264,5.871,18.1,7.994,27.055,4.2,17.737.262,41.916-4,55.113-14.755,45.712-45.458,73.41-93.93,85.175-17.4,4.222-44.951,1.567-58.956-3.006-40.717-13.3-68.38-42.233-80.939-84.173-3.213-10.731-7.538-32.422-4-48.1,2.086-9.234,3.538-19.581,7-28.058,12.291-30.138,37.373-55.345,66.95-68.14C230.586,6.325,246.645,1.929,254.183,1.5ZM193.229,4.507v2c-11.267,7.26-15.97,11.663-24.981,21.043-3.331,3.467-15.991,21.032-17.987,25.051-10.092-.215-23.652,0-35.973,0A71.643,71.643,0,0,0,94.3,57.616c-19.336,8.142-34.3,26.155-40.969,47.1-5.809,18.243-2,53.784-2,76.156V200.91C45.669,225.922,30.837,244.982.374,245V173.854c0-21.479-3.642-53.139,1-72.148,11.7-47.9,42.346-80.527,87.934-94.193C113.536,0.25,162.933,4.43,193.229,4.507Zm294.779,1h51.961c0.76,46.78-8.751,74.521-27.979,100.206-5.553,7.417-14.544,12.421-20.984,19.039h1l20.984,20.041c18.874,25.4,26.686,51.84,26.98,97.2H488.008c0.131-12.081,1.97-27.677-1-38.078-10.3-36.062-35.521-56.624-82.938-56.115h0c6.141-8.056,3.7-35.483,3-48.1,49.283,1.273,75.372-27.967,80.939-65.133V5.509ZM267.174,49.6c-6.235.013-19.373,2.99-25.981,6.012-15.7,7.182-30.31,23.8-36.972,40.082-17.483,42.718,12.045,80.457,39.97,92.189,6.474,2.72,19.721,8.177,29.977,6.012,30.652-6.468,51.214-18.351,61.954-44.09C357.822,97.8,315.761,49.806,267.174,49.6Z" transform="translate(0 -0.5)"/>
</svg>
